<svg width="313" height="235" xmlns="http://www.w3.org/2000/svg" xmlns:xlink="http://www.w3.org/1999/xlink" overflow="hidden"><defs><clipPath id="clip0"><rect x="457" y="341" width="313" height="235"/></clipPath></defs><g clip-path="url(#clip0)" transform="translate(-457 -341)"><path d="M162.665 116.96 288.262 14.0352C282.144 9.35681 274.587 6.83767 266.669 6.83767L44.9847 6.83767C37.0674 6.83767 29.51 9.35681 23.392 14.0352L148.989 116.96C152.948 120.199 158.706 120.199 162.665 116.96Z" fill="#B4B4B4" transform="matrix(1.00668 0 -0 1 457.176 341)"/><path d="M176.34 133.515C164.464 143.231 147.19 143.231 135.314 133.515L10.7963 31.3093C9.35681 35.268 8.63706 39.2266 8.63706 43.1853L8.63706 191.815C8.63706 211.968 24.8315 228.162 44.9847 228.162L266.669 228.162C286.822 228.162 303.017 211.968 303.017 191.815L303.017 43.1853C303.017 39.2266 302.297 35.268 300.858 31.3093L176.34 133.515Z" fill="#B4B4B4" transform="matrix(1.00668 0 -0 1 457.176 341)"/></g></svg>