<svg width="235" height="160" xmlns="http://www.w3.org/2000/svg" xmlns:xlink="http://www.w3.org/1999/xlink" overflow="hidden"><defs><clipPath id="clip0"><rect x="457" y="291" width="235" height="160"/></clipPath></defs><g clip-path="url(#clip0)" transform="translate(-457 -291)"><path d="M148.766 46.6812 148.766 38.8661C148.766 36.4937 146.742 34.191 144.021 34.191 125.739 34.191 106.829 34.191 87.85 34.191 85.1287 34.191 83.8029 36.5635 83.8029 38.8661L83.8029 46.6812C68.2425 46.6812 41.8666 117.017 41.8666 117.785L41.8666 140.462C41.8666 149.045 45.9137 156.092 51.3563 156.092 94.6184 156.092 137.95 156.092 181.212 156.092 185.957 156.092 190.702 149.045 190.702 140.462L190.702 117.785C190.772 117.017 164.326 46.6812 148.766 46.6812ZM219.171 74.8714 226.638 46.751C226.638 46.751 223.288 35.0283 198.238 18.6306 169.839-0.907109 62.9394-0.907109 33.8421 18.6306 8.79198 34.9586 5.37287 46.6812 5.37287 46.6812L13.4671 74.8016C29.7253 84.1518 52.6821 79.4767 52.6821 79.4767L65.5909 54.4963 56.1012 30.2835C79.1278 17.7933 153.511 17.7933 175.84 30.2835L166.35 54.4963 179.189 79.4767C179.259 79.5464 202.215 84.2215 219.171 74.8714ZM116.319 64.6838C131.182 64.6838 142.695 73.2665 142.695 83.454 142.695 93.6415 131.182 102.224 116.319 102.224 101.457 102.224 89.2455 93.6415 89.2455 83.454 89.2455 73.2665 101.457 64.6838 116.319 64.6838Z" fill="#B4B4B4" fill-rule="evenodd" transform="matrix(1.01004 0 -0 1 457.154 291)"/></g></svg>