<svg width="310" height="279" xmlns="http://www.w3.org/2000/svg" xmlns:xlink="http://www.w3.org/1999/xlink" overflow="hidden"><defs><clipPath id="clip0"><rect x="147" y="316" width="310" height="279"/></clipPath></defs><g clip-path="url(#clip0)" transform="translate(-147 -316)"><path d="M179.943 3.5283C211.698 10.5849 239.042 29.1084 258.448 54.6886 248.745 58.2169 235.514 61.7452 221.401 64.3914 212.58 37.0471 197.585 15.8773 179.943 3.5283ZM262.858 60.8631C276.971 82.0329 285.792 107.613 286.674 134.075L233.75 134.075C232.868 112.905 230.221 91.7357 224.929 73.2121 239.042 70.5659 252.273 66.1555 262.858 60.8631ZM224.047 134.075 151.717 134.075 151.717 82.0329C174.651 81.1508 195.82 79.3867 215.226 75.8584 220.518 93.4998 223.165 112.905 224.047 134.075ZM151.717 70.5659 151.717 1.76415C177.297 5.29244 199.349 29.9905 212.58 66.1555 194.056 68.8018 173.769 70.5659 151.717 70.5659ZM142.014 134.075 69.6838 134.075C70.5659 112.905 73.2121 93.4998 78.5046 75.8584 97.9102 79.3867 119.08 81.1508 142.014 82.0329L142.014 134.075ZM82.0329 66.1555C94.3819 29.9905 116.434 5.29244 142.014 1.76415L142.014 70.5659C120.844 70.5659 99.6744 68.8018 82.0329 66.1555ZM59.981 134.075 7.05659 134.075C7.93867 107.613 16.7594 82.0329 30.8726 60.8631 41.4575 66.1555 54.6886 70.5659 69.6838 73.2121 64.3914 91.7357 60.8631 112.905 59.981 134.075ZM36.165 54.6886C54.6886 29.1084 82.0329 10.5849 113.788 3.5283 96.1461 15.8773 82.0329 37.0471 72.3301 64.3914 58.2169 61.7452 45.8678 58.2169 36.165 54.6886ZM286.674 143.778C285.792 171.122 276.971 195.82 262.858 216.99 252.273 211.698 239.042 208.169 224.929 204.641 230.221 186.118 232.868 165.83 233.75 143.778L286.674 143.778ZM258.448 224.047C239.042 248.745 211.698 267.268 179.943 275.207 197.585 262.858 212.58 240.806 221.401 213.462 235.514 216.108 248.745 219.636 258.448 224.047ZM151.717 276.089 151.717 207.287C173.769 207.287 194.056 209.052 212.58 211.698 199.349 247.863 177.297 273.443 151.717 276.089ZM151.717 196.702 151.717 143.778 224.047 143.778C223.165 164.948 220.518 185.236 215.226 202.877 195.82 199.349 174.651 196.702 151.717 196.702ZM113.788 275.207C82.0329 267.268 54.6886 248.745 36.165 224.047 45.8678 219.636 58.2169 216.108 72.3301 213.462 82.0329 240.806 96.1461 262.858 113.788 275.207ZM30.8726 216.99C16.7594 195.82 7.93867 171.122 7.05659 143.778L59.981 143.778C60.8631 165.83 64.3914 186.118 69.6838 204.641 54.6886 208.169 41.4575 211.698 30.8726 216.99ZM69.6838 143.778 142.014 143.778 142.014 196.702C119.08 196.702 97.9102 199.349 78.5046 202.877 73.2121 185.236 70.5659 164.948 69.6838 143.778ZM142.014 207.287 142.014 276.089C116.434 273.443 94.3819 247.863 82.0329 211.698 99.6744 209.052 120.844 207.287 142.014 207.287Z" fill="#B4B4B4" transform="matrix(1.05439 0 -0 1 147.147 316)"/></g></svg>